<mxfile host="app.diagrams.net" agent="Mozilla/5.0 (Windows NT 10.0; Win64; x64) AppleWebKit/537.36 (KHTML, like Gecko) Chrome/136.0.0.0 Safari/537.36" version="27.0.6">
  <diagram name="Trang-1" id="38dmggVH66tuHzQIOLpA">
    <mxGraphModel dx="681" dy="310" grid="1" gridSize="10" guides="1" tooltips="1" connect="1" arrows="1" fold="1" page="1" pageScale="1" pageWidth="827" pageHeight="1169" math="0" shadow="0">
      <root>
        <mxCell id="0" />
        <mxCell id="1" parent="0" />
        <mxCell id="98odkiESlzDf9y3A8ELY-1" value="&lt;span style=&quot;color: rgb(51, 51, 51); font-family: arial, sans-serif; text-wrap-mode: nowrap; background-color: rgb(255, 255, 255);&quot;&gt;&lt;font style=&quot;font-size: 12px;&quot;&gt;Flight&lt;/font&gt;&lt;/span&gt;" style="shape=umlLifeline;perimeter=lifelinePerimeter;whiteSpace=wrap;html=1;container=1;dropTarget=0;collapsible=0;recursiveResize=0;outlineConnect=0;portConstraint=eastwest;newEdgeStyle={&quot;curved&quot;:0,&quot;rounded&quot;:0};" parent="1" vertex="1">
          <mxGeometry x="734" y="304" width="100" height="922" as="geometry" />
        </mxCell>
        <mxCell id="98odkiESlzDf9y3A8ELY-2" value="&lt;span style=&quot;color: rgb(51, 51, 51); font-family: arial, sans-serif; text-wrap-mode: nowrap; background-color: rgb(255, 255, 255);&quot;&gt;&lt;font style=&quot;font-size: 12px;&quot;&gt;WebsiteSystem&lt;/font&gt;&lt;/span&gt;" style="shape=umlLifeline;perimeter=lifelinePerimeter;whiteSpace=wrap;html=1;container=1;dropTarget=0;collapsible=0;recursiveResize=0;outlineConnect=0;portConstraint=eastwest;newEdgeStyle={&quot;curved&quot;:0,&quot;rounded&quot;:0};" parent="1" vertex="1">
          <mxGeometry x="541" y="305" width="100" height="922" as="geometry" />
        </mxCell>
        <mxCell id="98odkiESlzDf9y3A8ELY-3" value="&lt;span style=&quot;color: rgb(51, 51, 51); font-family: arial, sans-serif; text-wrap-mode: nowrap; background-color: rgb(255, 255, 255);&quot;&gt;&lt;font style=&quot;font-size: 12px;&quot;&gt;Ticket&lt;/font&gt;&lt;/span&gt;" style="shape=umlLifeline;perimeter=lifelinePerimeter;whiteSpace=wrap;html=1;container=1;dropTarget=0;collapsible=0;recursiveResize=0;outlineConnect=0;portConstraint=eastwest;newEdgeStyle={&quot;curved&quot;:0,&quot;rounded&quot;:0};" parent="1" vertex="1">
          <mxGeometry x="934" y="305" width="100" height="920" as="geometry" />
        </mxCell>
        <mxCell id="98odkiESlzDf9y3A8ELY-4" value="" style="html=1;points=[[0,0,0,0,5],[0,1,0,0,-5],[1,0,0,0,5],[1,1,0,0,-5]];perimeter=orthogonalPerimeter;outlineConnect=0;targetShapes=umlLifeline;portConstraint=eastwest;newEdgeStyle={&quot;curved&quot;:0,&quot;rounded&quot;:0};" parent="98odkiESlzDf9y3A8ELY-3" vertex="1">
          <mxGeometry x="45" y="465" width="10" height="39" as="geometry" />
        </mxCell>
        <mxCell id="98odkiESlzDf9y3A8ELY-5" value="&lt;span style=&quot;color: rgb(51, 51, 51); font-family: arial, sans-serif; text-wrap-mode: nowrap; background-color: rgb(255, 255, 255);&quot;&gt;&lt;font style=&quot;font-size: 12px;&quot;&gt;Payment&lt;/font&gt;&lt;/span&gt;" style="shape=umlLifeline;perimeter=lifelinePerimeter;whiteSpace=wrap;html=1;container=1;dropTarget=0;collapsible=0;recursiveResize=0;outlineConnect=0;portConstraint=eastwest;newEdgeStyle={&quot;curved&quot;:0,&quot;rounded&quot;:0};" parent="1" vertex="1">
          <mxGeometry x="1125" y="305" width="100" height="920" as="geometry" />
        </mxCell>
        <mxCell id="98odkiESlzDf9y3A8ELY-6" value="" style="html=1;points=[[0,0,0,0,5],[0,1,0,0,-5],[1,0,0,0,5],[1,1,0,0,-5]];perimeter=orthogonalPerimeter;outlineConnect=0;targetShapes=umlLifeline;portConstraint=eastwest;newEdgeStyle={&quot;curved&quot;:0,&quot;rounded&quot;:0};" parent="98odkiESlzDf9y3A8ELY-5" vertex="1">
          <mxGeometry x="45" y="601" width="10" height="277" as="geometry" />
        </mxCell>
        <mxCell id="98odkiESlzDf9y3A8ELY-7" value="&lt;span style=&quot;color: rgb(51, 51, 51); font-family: arial, sans-serif; text-wrap-mode: nowrap; background-color: rgb(255, 255, 255);&quot;&gt;&lt;font style=&quot;font-size: 12px;&quot;&gt;CreditCard&lt;/font&gt;&lt;/span&gt;" style="shape=umlLifeline;perimeter=lifelinePerimeter;whiteSpace=wrap;html=1;container=1;dropTarget=0;collapsible=0;recursiveResize=0;outlineConnect=0;portConstraint=eastwest;newEdgeStyle={&quot;curved&quot;:0,&quot;rounded&quot;:0};" parent="1" vertex="1">
          <mxGeometry x="1295" y="305" width="100" height="921" as="geometry" />
        </mxCell>
        <mxCell id="98odkiESlzDf9y3A8ELY-8" value="&lt;span style=&quot;color: rgb(51, 51, 51); font-family: arial, sans-serif; text-wrap-mode: nowrap; background-color: rgb(255, 255, 255);&quot;&gt;&lt;font style=&quot;font-size: 12px;&quot;&gt;TicketDatabase&lt;/font&gt;&lt;/span&gt;" style="shape=umlLifeline;perimeter=lifelinePerimeter;whiteSpace=wrap;html=1;container=1;dropTarget=0;collapsible=0;recursiveResize=0;outlineConnect=0;portConstraint=eastwest;newEdgeStyle={&quot;curved&quot;:0,&quot;rounded&quot;:0};" parent="1" vertex="1">
          <mxGeometry x="1483" y="306" width="100" height="921" as="geometry" />
        </mxCell>
        <mxCell id="98odkiESlzDf9y3A8ELY-9" value="" style="html=1;verticalAlign=bottom;endArrow=block;curved=0;rounded=0;" parent="1" edge="1">
          <mxGeometry x="-0.825" y="37" width="80" relative="1" as="geometry">
            <mxPoint x="417.75" y="378" as="sourcePoint" />
            <mxPoint x="588.25" y="378" as="targetPoint" />
            <mxPoint as="offset" />
          </mxGeometry>
        </mxCell>
        <mxCell id="98odkiESlzDf9y3A8ELY-10" value="&lt;font style=&quot;font-size: 10px;&quot;&gt;1. browsePortal()&lt;/font&gt;" style="text;html=1;align=center;verticalAlign=middle;whiteSpace=wrap;rounded=0;" parent="1" vertex="1">
          <mxGeometry x="442.5" y="362" width="121" height="16" as="geometry" />
        </mxCell>
        <mxCell id="98odkiESlzDf9y3A8ELY-11" value="" style="html=1;verticalAlign=bottom;endArrow=block;curved=0;rounded=0;" parent="1" target="98odkiESlzDf9y3A8ELY-57" edge="1">
          <mxGeometry x="-0.825" y="37" width="80" relative="1" as="geometry">
            <mxPoint x="415.5" y="446.83000000000004" as="sourcePoint" />
            <mxPoint x="579" y="447.12" as="targetPoint" />
            <mxPoint as="offset" />
          </mxGeometry>
        </mxCell>
        <mxCell id="98odkiESlzDf9y3A8ELY-12" value="&lt;font style=&quot;font-size: 10px;&quot;&gt;3. enterSearchCriteria()&lt;/font&gt;" style="text;html=1;align=center;verticalAlign=middle;whiteSpace=wrap;rounded=0;" parent="1" vertex="1">
          <mxGeometry x="434.5" y="430" width="137" height="16" as="geometry" />
        </mxCell>
        <mxCell id="98odkiESlzDf9y3A8ELY-13" value="" style="html=1;verticalAlign=bottom;endArrow=block;curved=0;rounded=0;" parent="1" edge="1">
          <mxGeometry x="-0.825" y="37" width="80" relative="1" as="geometry">
            <mxPoint x="591" y="460" as="sourcePoint" />
            <mxPoint x="782.5000000000002" y="460" as="targetPoint" />
            <mxPoint as="offset" />
          </mxGeometry>
        </mxCell>
        <mxCell id="98odkiESlzDf9y3A8ELY-14" value="&lt;font style=&quot;font-size: 10px;&quot;&gt;4. checkAvailability()&lt;/font&gt;" style="text;html=1;align=center;verticalAlign=middle;whiteSpace=wrap;rounded=0;" parent="1" vertex="1">
          <mxGeometry x="598" y="439" width="177" height="16" as="geometry" />
        </mxCell>
        <mxCell id="98odkiESlzDf9y3A8ELY-15" value="&lt;font style=&quot;font-size: 11px;&quot;&gt;Alternative&lt;/font&gt;" style="shape=umlFrame;whiteSpace=wrap;html=1;pointerEvents=0;" parent="1" vertex="1">
          <mxGeometry x="345" y="475" width="468" height="198" as="geometry" />
        </mxCell>
        <mxCell id="98odkiESlzDf9y3A8ELY-16" value="[If no flights available]" style="text;html=1;align=center;verticalAlign=middle;whiteSpace=wrap;rounded=0;" parent="1" vertex="1">
          <mxGeometry x="324" y="498" width="113" height="50" as="geometry" />
        </mxCell>
        <mxCell id="98odkiESlzDf9y3A8ELY-17" value="&lt;font style=&quot;font-size: 10px;&quot;&gt;5. returnNoFlights()&lt;/font&gt;" style="html=1;verticalAlign=bottom;endArrow=open;dashed=1;endSize=8;curved=0;rounded=0;" parent="1" target="98odkiESlzDf9y3A8ELY-57" edge="1">
          <mxGeometry relative="1" as="geometry">
            <mxPoint x="782.54" y="518" as="sourcePoint" />
            <mxPoint x="590.4685714285713" y="518" as="targetPoint" />
          </mxGeometry>
        </mxCell>
        <mxCell id="98odkiESlzDf9y3A8ELY-18" value="" style="html=1;verticalAlign=bottom;endArrow=open;dashed=1;endSize=8;curved=0;rounded=0;" parent="1" target="98odkiESlzDf9y3A8ELY-55" edge="1">
          <mxGeometry relative="1" as="geometry">
            <mxPoint x="589.5" y="551" as="sourcePoint" />
            <mxPoint x="418.4985714285714" y="551.21" as="targetPoint" />
          </mxGeometry>
        </mxCell>
        <mxCell id="98odkiESlzDf9y3A8ELY-19" value="&lt;font style=&quot;font-size: 10px;&quot;&gt;6. showNoFlightAvailable()&lt;/font&gt;" style="text;html=1;align=center;verticalAlign=middle;whiteSpace=wrap;rounded=0;" parent="1" vertex="1">
          <mxGeometry x="432" y="531" width="142" height="17" as="geometry" />
        </mxCell>
        <mxCell id="98odkiESlzDf9y3A8ELY-20" value="[else]" style="text;html=1;align=center;verticalAlign=middle;whiteSpace=wrap;rounded=0;" parent="1" vertex="1">
          <mxGeometry x="280" y="575" width="185" height="16" as="geometry" />
        </mxCell>
        <mxCell id="98odkiESlzDf9y3A8ELY-21" value="" style="endArrow=none;dashed=1;html=1;rounded=0;exitX=0;exitY=0.558;exitDx=0;exitDy=0;exitPerimeter=0;entryX=1.001;entryY=0.495;entryDx=0;entryDy=0;entryPerimeter=0;" parent="1" source="98odkiESlzDf9y3A8ELY-15" target="98odkiESlzDf9y3A8ELY-15" edge="1">
          <mxGeometry width="50" height="50" relative="1" as="geometry">
            <mxPoint x="345" y="574" as="sourcePoint" />
            <mxPoint x="800" y="574" as="targetPoint" />
            <Array as="points">
              <mxPoint x="347" y="574" />
            </Array>
          </mxGeometry>
        </mxCell>
        <mxCell id="98odkiESlzDf9y3A8ELY-22" value="&lt;font style=&quot;font-size: 10px;&quot;&gt;7. returnAvailableFlights()&lt;/font&gt;" style="html=1;verticalAlign=bottom;endArrow=open;dashed=1;endSize=8;curved=0;rounded=0;" parent="1" target="98odkiESlzDf9y3A8ELY-57" edge="1">
          <mxGeometry relative="1" as="geometry">
            <mxPoint x="782.54" y="608" as="sourcePoint" />
            <mxPoint x="590.4685714285713" y="608" as="targetPoint" />
          </mxGeometry>
        </mxCell>
        <mxCell id="98odkiESlzDf9y3A8ELY-23" value="" style="html=1;verticalAlign=bottom;endArrow=open;dashed=1;endSize=8;curved=0;rounded=0;" parent="1" target="98odkiESlzDf9y3A8ELY-55" edge="1">
          <mxGeometry relative="1" as="geometry">
            <mxPoint x="588.5" y="646" as="sourcePoint" />
            <mxPoint x="417.4985714285714" y="646.21" as="targetPoint" />
          </mxGeometry>
        </mxCell>
        <mxCell id="98odkiESlzDf9y3A8ELY-24" value="&lt;span style=&quot;font-size: 10px;&quot;&gt;8. displayFlightList()&lt;/span&gt;" style="text;html=1;align=center;verticalAlign=middle;whiteSpace=wrap;rounded=0;" parent="1" vertex="1">
          <mxGeometry x="437" y="623" width="142" height="17" as="geometry" />
        </mxCell>
        <mxCell id="98odkiESlzDf9y3A8ELY-25" value="" style="html=1;verticalAlign=bottom;endArrow=block;curved=0;rounded=0;" parent="1" edge="1">
          <mxGeometry x="-0.825" y="37" width="80" relative="1" as="geometry">
            <mxPoint x="415" y="705" as="sourcePoint" />
            <mxPoint x="586" y="705" as="targetPoint" />
            <mxPoint as="offset" />
          </mxGeometry>
        </mxCell>
        <mxCell id="98odkiESlzDf9y3A8ELY-26" value="&lt;font style=&quot;font-size: 10px;&quot;&gt;9. selectFlight()&lt;/font&gt;" style="text;html=1;align=center;verticalAlign=middle;whiteSpace=wrap;rounded=0;" parent="1" vertex="1">
          <mxGeometry x="442.5" y="685" width="121" height="16" as="geometry" />
        </mxCell>
        <mxCell id="98odkiESlzDf9y3A8ELY-27" value="" style="html=1;verticalAlign=bottom;endArrow=block;curved=0;rounded=0;" parent="1" edge="1">
          <mxGeometry x="-0.825" y="37" width="80" relative="1" as="geometry">
            <mxPoint x="415" y="740" as="sourcePoint" />
            <mxPoint x="586" y="740" as="targetPoint" />
            <mxPoint as="offset" />
          </mxGeometry>
        </mxCell>
        <mxCell id="98odkiESlzDf9y3A8ELY-28" value="&lt;font style=&quot;font-size: 10px;&quot;&gt;10. confirmBoking()&lt;/font&gt;" style="text;html=1;align=center;verticalAlign=middle;whiteSpace=wrap;rounded=0;" parent="1" vertex="1">
          <mxGeometry x="442.5" y="719" width="121" height="16" as="geometry" />
        </mxCell>
        <mxCell id="98odkiESlzDf9y3A8ELY-29" value="" style="html=1;verticalAlign=bottom;endArrow=block;curved=0;rounded=0;" parent="1" target="98odkiESlzDf9y3A8ELY-3" edge="1">
          <mxGeometry x="-0.825" y="37" width="80" relative="1" as="geometry">
            <mxPoint x="591" y="767" as="sourcePoint" />
            <mxPoint x="762" y="767" as="targetPoint" />
            <mxPoint as="offset" />
          </mxGeometry>
        </mxCell>
        <mxCell id="98odkiESlzDf9y3A8ELY-30" value="&lt;font style=&quot;font-size: 10px;&quot;&gt;11. generateTicket()&lt;/font&gt;" style="text;html=1;align=center;verticalAlign=middle;whiteSpace=wrap;rounded=0;" parent="1" vertex="1">
          <mxGeometry x="750" y="748" width="189" height="16" as="geometry" />
        </mxCell>
        <mxCell id="98odkiESlzDf9y3A8ELY-31" value="&lt;font style=&quot;font-size: 10px;&quot;&gt;12. ticketGenerated()&lt;/font&gt;" style="html=1;verticalAlign=bottom;endArrow=open;dashed=1;endSize=8;curved=0;rounded=0;" parent="1" target="98odkiESlzDf9y3A8ELY-57" edge="1">
          <mxGeometry relative="1" as="geometry">
            <mxPoint x="978" y="805" as="sourcePoint" />
            <mxPoint x="790.9985714285714" y="798" as="targetPoint" />
            <Array as="points">
              <mxPoint x="958" y="805" />
            </Array>
          </mxGeometry>
        </mxCell>
        <mxCell id="98odkiESlzDf9y3A8ELY-32" value="&lt;font style=&quot;font-size: 10px;&quot;&gt;13. showTicket()&lt;/font&gt;" style="html=1;verticalAlign=bottom;endArrow=open;dashed=1;endSize=8;curved=0;rounded=0;" parent="1" source="98odkiESlzDf9y3A8ELY-2" target="98odkiESlzDf9y3A8ELY-55" edge="1">
          <mxGeometry relative="1" as="geometry">
            <mxPoint x="611.0699999999999" y="827" as="sourcePoint" />
            <mxPoint x="428" y="827" as="targetPoint" />
            <Array as="points">
              <mxPoint x="441" y="827" />
            </Array>
          </mxGeometry>
        </mxCell>
        <mxCell id="98odkiESlzDf9y3A8ELY-33" value="" style="html=1;verticalAlign=bottom;endArrow=block;curved=0;rounded=0;" parent="1" edge="1">
          <mxGeometry x="-0.825" y="37" width="80" relative="1" as="geometry">
            <mxPoint x="415" y="869" as="sourcePoint" />
            <mxPoint x="586" y="869" as="targetPoint" />
            <mxPoint as="offset" />
          </mxGeometry>
        </mxCell>
        <mxCell id="98odkiESlzDf9y3A8ELY-34" value="&lt;div style=&quot;text-align: center;&quot;&gt;&lt;span style=&quot;color: light-dark(rgb(0, 0, 0), rgb(255, 255, 255)); text-wrap-mode: nowrap; background-color: rgb(255, 255, 255);&quot;&gt;&lt;font style=&quot;font-size: 10px;&quot;&gt;14. enterPaymentInfor()&lt;/font&gt;&lt;/span&gt;&lt;/div&gt;" style="text;whiteSpace=wrap;html=1;" parent="1" vertex="1">
          <mxGeometry x="437" y="843" width="119" height="22" as="geometry" />
        </mxCell>
        <mxCell id="98odkiESlzDf9y3A8ELY-35" value="" style="html=1;verticalAlign=bottom;endArrow=block;curved=0;rounded=0;" parent="1" target="98odkiESlzDf9y3A8ELY-5" edge="1">
          <mxGeometry x="-0.825" y="37" width="80" relative="1" as="geometry">
            <mxPoint x="591" y="903" as="sourcePoint" />
            <mxPoint x="762" y="903" as="targetPoint" />
            <mxPoint as="offset" />
          </mxGeometry>
        </mxCell>
        <mxCell id="98odkiESlzDf9y3A8ELY-36" value="&lt;font style=&quot;font-size: 10px;&quot;&gt;15. processPayment()&lt;/font&gt;" style="text;html=1;align=center;verticalAlign=middle;whiteSpace=wrap;rounded=0;" parent="1" vertex="1">
          <mxGeometry x="788" y="883" width="189" height="16" as="geometry" />
        </mxCell>
        <mxCell id="98odkiESlzDf9y3A8ELY-37" value="" style="html=1;verticalAlign=bottom;endArrow=block;curved=0;rounded=0;" parent="1" source="98odkiESlzDf9y3A8ELY-6" edge="1">
          <mxGeometry x="-0.825" y="37" width="80" relative="1" as="geometry">
            <mxPoint x="1175" y="933" as="sourcePoint" />
            <mxPoint x="1346" y="933" as="targetPoint" />
            <mxPoint as="offset" />
          </mxGeometry>
        </mxCell>
        <mxCell id="98odkiESlzDf9y3A8ELY-38" value="&lt;font style=&quot;font-size: 10px;&quot;&gt;16. validate()&lt;/font&gt;" style="text;html=1;align=center;verticalAlign=middle;whiteSpace=wrap;rounded=0;" parent="1" vertex="1">
          <mxGeometry x="1175" y="914" width="156" height="16" as="geometry" />
        </mxCell>
        <mxCell id="98odkiESlzDf9y3A8ELY-39" value="&lt;font style=&quot;font-size: 11px;&quot;&gt;Alternative&lt;/font&gt;" style="shape=umlFrame;whiteSpace=wrap;html=1;pointerEvents=0;" parent="1" vertex="1">
          <mxGeometry x="345" y="950" width="1240" height="265" as="geometry" />
        </mxCell>
        <mxCell id="98odkiESlzDf9y3A8ELY-40" value="" style="endArrow=none;dashed=1;html=1;rounded=0;entryX=1.002;entryY=0.442;entryDx=0;entryDy=0;entryPerimeter=0;exitX=0;exitY=0.442;exitDx=0;exitDy=0;exitPerimeter=0;" parent="1" source="98odkiESlzDf9y3A8ELY-39" target="98odkiESlzDf9y3A8ELY-39" edge="1">
          <mxGeometry width="50" height="50" relative="1" as="geometry">
            <mxPoint x="339" y="1064" as="sourcePoint" />
            <mxPoint x="1580" y="1056" as="targetPoint" />
          </mxGeometry>
        </mxCell>
        <mxCell id="98odkiESlzDf9y3A8ELY-41" value="&lt;font style=&quot;font-size: 11px;&quot;&gt;[If Invalid credit card]&lt;/font&gt;" style="text;html=1;align=center;verticalAlign=middle;whiteSpace=wrap;rounded=0;" parent="1" vertex="1">
          <mxGeometry x="340" y="975" width="74" height="81" as="geometry" />
        </mxCell>
        <mxCell id="98odkiESlzDf9y3A8ELY-42" value="[else]" style="text;html=1;align=center;verticalAlign=middle;whiteSpace=wrap;rounded=0;" parent="1" vertex="1">
          <mxGeometry x="318" y="1079" width="109" height="16" as="geometry" />
        </mxCell>
        <mxCell id="98odkiESlzDf9y3A8ELY-43" value="&lt;font style=&quot;font-size: 10px;&quot;&gt;17. returnInvalid()&lt;/font&gt;" style="html=1;verticalAlign=bottom;endArrow=open;dashed=1;endSize=8;curved=0;rounded=0;" parent="1" edge="1">
          <mxGeometry x="-0.0029" relative="1" as="geometry">
            <mxPoint x="1345" y="985" as="sourcePoint" />
            <mxPoint x="1179" y="986" as="targetPoint" />
            <mxPoint as="offset" />
          </mxGeometry>
        </mxCell>
        <mxCell id="98odkiESlzDf9y3A8ELY-44" value="&lt;font style=&quot;font-size: 10px;&quot;&gt;18. paymentFailed()&lt;/font&gt;" style="html=1;verticalAlign=bottom;endArrow=open;dashed=1;endSize=8;curved=0;rounded=0;" parent="1" target="98odkiESlzDf9y3A8ELY-57" edge="1">
          <mxGeometry relative="1" as="geometry">
            <mxPoint x="1170" y="1015" as="sourcePoint" />
            <mxPoint x="590.6304347826087" y="1015.07" as="targetPoint" />
          </mxGeometry>
        </mxCell>
        <mxCell id="98odkiESlzDf9y3A8ELY-45" value="&lt;font style=&quot;font-size: 10px;&quot;&gt;19. showPaymentError()&lt;/font&gt;" style="html=1;verticalAlign=bottom;endArrow=open;dashed=1;endSize=8;curved=0;rounded=0;" parent="1" edge="1">
          <mxGeometry relative="1" as="geometry">
            <mxPoint x="593" y="1043" as="sourcePoint" />
            <mxPoint x="423" y="1043" as="targetPoint" />
          </mxGeometry>
        </mxCell>
        <mxCell id="98odkiESlzDf9y3A8ELY-46" value="&lt;font style=&quot;font-size: 10px;&quot;&gt;20. returnValid()&lt;/font&gt;" style="html=1;verticalAlign=bottom;endArrow=open;dashed=1;endSize=8;curved=0;rounded=0;" parent="1" edge="1" target="98odkiESlzDf9y3A8ELY-6">
          <mxGeometry x="0.0034" relative="1" as="geometry">
            <mxPoint x="1350" y="1095" as="sourcePoint" />
            <mxPoint x="1183.67" y="1096" as="targetPoint" />
            <mxPoint as="offset" />
          </mxGeometry>
        </mxCell>
        <mxCell id="98odkiESlzDf9y3A8ELY-47" value="" style="html=1;verticalAlign=bottom;endArrow=block;curved=0;rounded=0;" parent="1" edge="1">
          <mxGeometry x="-0.825" y="37" width="80" relative="1" as="geometry">
            <mxPoint x="1175.33" y="1121" as="sourcePoint" />
            <mxPoint x="1532.83" y="1121" as="targetPoint" />
            <mxPoint as="offset" />
          </mxGeometry>
        </mxCell>
        <mxCell id="98odkiESlzDf9y3A8ELY-48" value="&lt;font style=&quot;font-size: 10px;&quot;&gt;21. saveTransaction()&lt;/font&gt;" style="text;html=1;align=center;verticalAlign=middle;whiteSpace=wrap;rounded=0;" parent="1" vertex="1">
          <mxGeometry x="1337" y="1104" width="156" height="16" as="geometry" />
        </mxCell>
        <mxCell id="98odkiESlzDf9y3A8ELY-49" value="&lt;font style=&quot;font-size: 10px;&quot;&gt;22. confirmSaved()&lt;/font&gt;" style="html=1;verticalAlign=bottom;endArrow=open;dashed=1;endSize=8;curved=0;rounded=0;" parent="1" source="98odkiESlzDf9y3A8ELY-61" edge="1">
          <mxGeometry relative="1" as="geometry">
            <mxPoint x="1532.33" y="1152" as="sourcePoint" />
            <mxPoint x="1179" y="1151" as="targetPoint" />
          </mxGeometry>
        </mxCell>
        <mxCell id="98odkiESlzDf9y3A8ELY-50" value="&lt;font style=&quot;font-size: 10px;&quot;&gt;23. confirmPurchase()&lt;/font&gt;" style="html=1;verticalAlign=bottom;endArrow=open;dashed=1;endSize=8;curved=0;rounded=0;" parent="1" target="98odkiESlzDf9y3A8ELY-57" edge="1">
          <mxGeometry relative="1" as="geometry">
            <mxPoint x="1171" y="1174" as="sourcePoint" />
            <mxPoint x="590.63" y="1173" as="targetPoint" />
          </mxGeometry>
        </mxCell>
        <mxCell id="98odkiESlzDf9y3A8ELY-51" value="&lt;font style=&quot;font-size: 10px;&quot;&gt;24. showConfirmation()&lt;/font&gt;" style="html=1;verticalAlign=bottom;endArrow=open;dashed=1;endSize=8;curved=0;rounded=0;" parent="1" target="98odkiESlzDf9y3A8ELY-55" edge="1">
          <mxGeometry x="-0.0012" relative="1" as="geometry">
            <mxPoint x="588" y="1202" as="sourcePoint" />
            <mxPoint x="418" y="1202" as="targetPoint" />
            <mxPoint as="offset" />
          </mxGeometry>
        </mxCell>
        <mxCell id="98odkiESlzDf9y3A8ELY-52" value="" style="html=1;verticalAlign=bottom;endArrow=open;dashed=1;endSize=8;curved=0;rounded=0;" parent="1" source="98odkiESlzDf9y3A8ELY-57" edge="1">
          <mxGeometry relative="1" as="geometry">
            <mxPoint x="590" y="410" as="sourcePoint" />
            <mxPoint x="422.5" y="411.21" as="targetPoint" />
          </mxGeometry>
        </mxCell>
        <mxCell id="98odkiESlzDf9y3A8ELY-53" value="&lt;font style=&quot;font-size: 10px;&quot;&gt;2. displayForm()&lt;/font&gt;" style="text;html=1;align=center;verticalAlign=middle;whiteSpace=wrap;rounded=0;" parent="1" vertex="1">
          <mxGeometry x="423" y="394" width="163" height="16" as="geometry" />
        </mxCell>
        <mxCell id="98odkiESlzDf9y3A8ELY-54" value="" style="shape=umlLifeline;perimeter=lifelinePerimeter;whiteSpace=wrap;html=1;container=1;dropTarget=0;collapsible=0;recursiveResize=0;outlineConnect=0;portConstraint=eastwest;newEdgeStyle={&quot;curved&quot;:0,&quot;rounded&quot;:0};participant=umlActor;" parent="1" vertex="1">
          <mxGeometry x="408" y="308" width="23" height="923" as="geometry" />
        </mxCell>
        <mxCell id="98odkiESlzDf9y3A8ELY-55" value="" style="html=1;points=[[0,0,0,0,5],[0,1,0,0,-5],[1,0,0,0,5],[1,1,0,0,-5]];perimeter=orthogonalPerimeter;outlineConnect=0;targetShapes=umlLifeline;portConstraint=eastwest;newEdgeStyle={&quot;curved&quot;:0,&quot;rounded&quot;:0};" parent="98odkiESlzDf9y3A8ELY-54" vertex="1">
          <mxGeometry x="6" y="48" width="10" height="865" as="geometry" />
        </mxCell>
        <mxCell id="98odkiESlzDf9y3A8ELY-56" value="" style="html=1;verticalAlign=bottom;endArrow=open;dashed=1;endSize=8;curved=0;rounded=0;" parent="1" source="98odkiESlzDf9y3A8ELY-2" target="98odkiESlzDf9y3A8ELY-57" edge="1">
          <mxGeometry relative="1" as="geometry">
            <mxPoint x="591" y="411" as="sourcePoint" />
            <mxPoint x="422.5" y="411.21" as="targetPoint" />
          </mxGeometry>
        </mxCell>
        <mxCell id="98odkiESlzDf9y3A8ELY-57" value="" style="html=1;points=[[0,0,0,0,5],[0,1,0,0,-5],[1,0,0,0,5],[1,1,0,0,-5]];perimeter=orthogonalPerimeter;outlineConnect=0;targetShapes=umlLifeline;portConstraint=eastwest;newEdgeStyle={&quot;curved&quot;:0,&quot;rounded&quot;:0};" parent="1" vertex="1">
          <mxGeometry x="586" y="380" width="10" height="835" as="geometry" />
        </mxCell>
        <mxCell id="98odkiESlzDf9y3A8ELY-58" value="" style="html=1;points=[[0,0,0,0,5],[0,1,0,0,-5],[1,0,0,0,5],[1,1,0,0,-5]];perimeter=orthogonalPerimeter;outlineConnect=0;targetShapes=umlLifeline;portConstraint=eastwest;newEdgeStyle={&quot;curved&quot;:0,&quot;rounded&quot;:0};" parent="1" vertex="1">
          <mxGeometry x="779" y="464" width="10" height="157" as="geometry" />
        </mxCell>
        <mxCell id="98odkiESlzDf9y3A8ELY-59" value="" style="html=1;points=[[0,0,0,0,5],[0,1,0,0,-5],[1,0,0,0,5],[1,1,0,0,-5]];perimeter=orthogonalPerimeter;outlineConnect=0;targetShapes=umlLifeline;portConstraint=eastwest;newEdgeStyle={&quot;curved&quot;:0,&quot;rounded&quot;:0};" parent="1" vertex="1">
          <mxGeometry x="1340" y="936" width="10" height="168" as="geometry" />
        </mxCell>
        <mxCell id="98odkiESlzDf9y3A8ELY-60" value="" style="html=1;verticalAlign=bottom;endArrow=open;dashed=1;endSize=8;curved=0;rounded=0;" parent="1" target="98odkiESlzDf9y3A8ELY-61" edge="1">
          <mxGeometry relative="1" as="geometry">
            <mxPoint x="1532.33" y="1152" as="sourcePoint" />
            <mxPoint x="1179" y="1151" as="targetPoint" />
          </mxGeometry>
        </mxCell>
        <mxCell id="98odkiESlzDf9y3A8ELY-61" value="" style="html=1;points=[[0,0,0,0,5],[0,1,0,0,-5],[1,0,0,0,5],[1,1,0,0,-5]];perimeter=orthogonalPerimeter;outlineConnect=0;targetShapes=umlLifeline;portConstraint=eastwest;newEdgeStyle={&quot;curved&quot;:0,&quot;rounded&quot;:0};" parent="1" vertex="1">
          <mxGeometry x="1528" y="1125" width="10" height="39" as="geometry" />
        </mxCell>
        <mxCell id="98odkiESlzDf9y3A8ELY-62" value="Passenger" style="text;html=1;align=center;verticalAlign=middle;resizable=0;points=[];autosize=1;strokeColor=none;fillColor=none;" parent="1" vertex="1">
          <mxGeometry x="382.5" y="280" width="75" height="26" as="geometry" />
        </mxCell>
      </root>
    </mxGraphModel>
  </diagram>
</mxfile>
